<?xml version="1.0" encoding="utf-8"?>
<!-- Generator: Adobe Illustrator 23.0.3, SVG Export Plug-In . SVG Version: 6.00 Build 0)  -->
<svg version="1.1" id="Слой_1" xmlns="http://www.w3.org/2000/svg" xmlns:xlink="http://www.w3.org/1999/xlink" x="0px" y="0px"
	 viewBox="0 0 64 34.35" style="enable-background:new 0 0 64 34.35;" xml:space="preserve">
<style type="text/css">
	.st0{fill:#0080FF;}
</style>
<g>
	<path class="st0" d="M24.46,16.15c0.02,0,0.04,0.04,0.04,0.11c0,0.12-0.06,0.33-0.19,0.64c-0.13,0.31-0.32,0.67-0.56,1.08
		c-0.25,0.41-0.55,0.84-0.9,1.3c-0.36,0.46-0.76,0.89-1.22,1.3c-0.23,0.06-0.53,0.12-0.89,0.18c-0.36,0.06-0.77,0.13-1.23,0.18
		s-0.96,0.12-1.5,0.18c-0.54,0.06-1.1,0.13-1.68,0.18c-0.69,1.09-1.36,2.16-2,3.24c-0.65,1.07-1.26,2.12-1.83,3.12
		s-1.1,1.98-1.58,2.91c-0.48,0.93-0.9,1.8-1.25,2.61c-0.26,0.11-0.64,0.21-1.14,0.32c-0.5,0.11-1.02,0.22-1.57,0.32
		c-0.54,0.11-1.05,0.2-1.51,0.3c-0.47,0.09-0.79,0.17-0.98,0.23c1.1-2.35,2.2-4.55,3.32-6.63s2.26-4.06,3.42-5.98
		c-0.61,0.05-1.18,0.09-1.72,0.13c-0.54,0.04-1.01,0.07-1.42,0.1c-0.41,0.02-0.74,0.04-1,0.06s-0.41,0.03-0.46,0.03
		c-0.07,0-0.11-0.05-0.11-0.14c0-0.13,0.06-0.32,0.18-0.56s0.25-0.49,0.41-0.74c0.16-0.25,0.32-0.47,0.49-0.67s0.3-0.3,0.39-0.32
		c0.91-0.08,1.77-0.17,2.58-0.26c0.81-0.09,1.58-0.19,2.32-0.3c1.9-2.95,3.85-5.72,5.85-8.32s4.02-5.12,6.07-7.58
		c0.05-0.05,0.07-0.15,0.07-0.3c0-0.07-0.02-0.14-0.06-0.21s-0.13-0.08-0.27-0.04c-2.49,0.68-4.73,1.43-6.74,2.26
		s-3.79,1.67-5.36,2.51S9.51,9.07,8.38,9.88c-1.14,0.81-2.07,1.53-2.81,2.18c-0.74,0.65-1.28,1.18-1.63,1.6
		c-0.35,0.42-0.53,0.67-0.53,0.74c0,0.04,0.01,0.08,0.04,0.15c0.03,0.06,0.13,0.1,0.31,0.1c0.37,0,0.77-0.05,1.2-0.16
		c0.43-0.11,0.85-0.24,1.28-0.4s0.84-0.34,1.23-0.53s0.76-0.38,1.1-0.55c0.01,0.27,0.03,0.58,0.04,0.94
		c0.02,0.36,0.04,0.71,0.05,1.08c0.02,0.36,0.04,0.71,0.05,1.04c0.02,0.33,0.03,0.6,0.03,0.81c-0.14,0.07-0.37,0.14-0.68,0.22
		c-0.32,0.08-0.7,0.15-1.15,0.21c-0.45,0.06-0.96,0.12-1.52,0.16c-0.57,0.04-1.17,0.06-1.81,0.06c-0.07,0-0.13-0.01-0.17-0.02
		c-0.04-0.01-0.08-0.02-0.11-0.02c-0.11-0.01-0.26-0.11-0.46-0.28c-0.2-0.18-0.43-0.4-0.67-0.67s-0.5-0.56-0.75-0.88
		s-0.49-0.63-0.7-0.93c-0.21-0.3-0.38-0.57-0.52-0.82S0,13.46,0,13.34c0-0.71,0.27-1.45,0.8-2.21c0.53-0.76,1.25-1.53,2.15-2.28
		c0.9-0.76,1.95-1.51,3.14-2.24s2.44-1.43,3.76-2.08s2.66-1.26,4.03-1.81s2.67-1.03,3.92-1.43c1.25-0.4,2.4-0.71,3.46-0.94
		c1.06-0.23,1.93-0.34,2.62-0.34c0.2,0,0.43,0.08,0.69,0.23s0.53,0.35,0.79,0.6c0.26,0.25,0.52,0.52,0.78,0.82
		c0.26,0.3,0.49,0.61,0.69,0.91c0.2,0.3,0.37,0.59,0.5,0.87c0.13,0.27,0.2,0.5,0.21,0.67c0,0.07-0.12,0.3-0.36,0.69
		c-0.24,0.39-0.57,0.9-0.99,1.54c-0.42,0.64-0.92,1.38-1.49,2.24c-0.57,0.86-1.2,1.79-1.87,2.8s-1.39,2.08-2.14,3.2
		s-1.51,2.28-2.28,3.47c1.05-0.25,1.95-0.48,2.7-0.71c0.75-0.23,1.37-0.43,1.86-0.6c0.49-0.18,0.86-0.32,1.1-0.43
		C24.3,16.2,24.43,16.15,24.46,16.15z"/>
	<path class="st0" d="M28.25,26.07c0.19,0,0.44-0.08,0.76-0.25c0.32-0.16,0.67-0.37,1.06-0.62s0.79-0.53,1.21-0.83
		s0.81-0.6,1.18-0.89s0.7-0.56,0.99-0.81c0.29-0.25,0.51-0.43,0.65-0.54c0.11,0.11,0.23,0.24,0.38,0.4
		c0.15,0.16,0.28,0.32,0.41,0.46c-0.26,0.26-0.58,0.57-0.96,0.94c-0.39,0.37-0.8,0.74-1.25,1.13s-0.92,0.77-1.4,1.16
		s-0.96,0.73-1.42,1.03s-0.89,0.55-1.29,0.74s-0.73,0.28-1,0.28c-0.36,0-0.74-0.13-1.15-0.39c-0.4-0.26-0.78-0.56-1.13-0.9
		c-0.35-0.34-0.65-0.69-0.89-1.04s-0.39-0.61-0.42-0.79c-0.02-0.07-0.04-0.15-0.04-0.25c0-0.1,0-0.21,0-0.32
		c0-0.58,0.07-1.32,0.22-2.21c0.15-0.89,0.34-1.84,0.59-2.84c0.25-1,0.53-1.99,0.85-2.98c0.32-0.99,0.66-1.86,1.01-2.62
		c0.71-1.55,1.44-2.93,2.2-4.13s1.49-2.25,2.21-3.14c0.72-0.89,1.42-1.64,2.08-2.25s1.26-1.1,1.79-1.47s0.98-0.64,1.35-0.81
		s0.62-0.25,0.76-0.25c0.22,0.08,0.45,0.2,0.67,0.36c0.23,0.16,0.44,0.32,0.64,0.5c0.2,0.18,0.37,0.35,0.53,0.52
		s0.26,0.29,0.33,0.38c0.09,0.09,0.15,0.18,0.18,0.27c0.03,0.09,0.04,0.2,0.04,0.34c0,0.28-0.07,0.67-0.21,1.16s-0.4,1.11-0.79,1.86
		s-0.92,1.65-1.6,2.7s-1.57,2.28-2.67,3.68c-0.51,0.65-1.06,1.32-1.63,2c-0.49,0.58-1.06,1.22-1.7,1.91
		c-0.64,0.69-1.3,1.35-1.98,1.98c-0.34,1.28-0.57,2.42-0.71,3.4s-0.2,1.74-0.2,2.29c0,0.36,0.03,0.6,0.09,0.7
		S28.15,26.07,28.25,26.07z M31.05,13.24c-0.2,0.44-0.38,0.88-0.55,1.3c-0.17,0.42-0.33,0.83-0.48,1.24
		c0.36-0.41,0.69-0.8,0.99-1.17c0.3-0.37,0.55-0.69,0.76-0.96c0.25-0.32,0.47-0.61,0.67-0.89c0.82-1.14,1.52-2.19,2.12-3.15
		c0.6-0.96,1.09-1.8,1.47-2.53s0.67-1.34,0.85-1.82s0.27-0.83,0.27-1.04c0-0.06,0-0.1-0.01-0.13s-0.04-0.04-0.1-0.04
		c-0.11,0-0.34,0.17-0.72,0.52c-0.37,0.34-0.83,0.89-1.37,1.64c-0.54,0.75-1.15,1.7-1.82,2.86C32.46,10.21,31.77,11.61,31.05,13.24z
		"/>
	<path class="st0" d="M43.2,25.76c0,0.07,0.04,0.11,0.11,0.11c0.13,0,0.32-0.08,0.59-0.23c0.26-0.15,0.56-0.34,0.9-0.58
		c0.34-0.23,0.69-0.5,1.07-0.79c0.37-0.29,0.73-0.57,1.07-0.85s0.64-0.53,0.92-0.76s0.48-0.41,0.62-0.53
		c0.11,0.11,0.23,0.24,0.38,0.4c0.15,0.16,0.28,0.32,0.41,0.46c-0.26,0.26-0.58,0.57-0.97,0.93c-0.39,0.36-0.82,0.74-1.28,1.13
		c-0.46,0.39-0.94,0.78-1.44,1.16c-0.5,0.38-0.98,0.72-1.44,1.02c-0.47,0.3-0.9,0.54-1.31,0.73c-0.41,0.19-0.75,0.28-1.02,0.28
		c-0.2,0-0.42-0.06-0.67-0.18s-0.48-0.28-0.69-0.47s-0.4-0.41-0.54-0.64c-0.15-0.23-0.22-0.46-0.22-0.67c0-0.19,0.07-0.54,0.21-1.07
		c0.14-0.53,0.31-1.14,0.51-1.84c-0.53,0.71-1.04,1.34-1.54,1.88c-0.5,0.54-0.96,1.01-1.38,1.39s-0.79,0.7-1.1,0.94
		c-0.32,0.24-0.55,0.41-0.7,0.52c-0.09,0.06-0.2,0.1-0.33,0.13c-0.13,0.03-0.25,0.04-0.35,0.04c-0.22,0-0.47-0.07-0.74-0.2
		s-0.52-0.3-0.74-0.5c-0.23-0.2-0.42-0.42-0.58-0.67s-0.24-0.48-0.24-0.7c0-0.26,0.08-0.68,0.25-1.28s0.4-1.31,0.68-2.14
		s0.62-1.76,1.01-2.78s0.8-2.11,1.24-3.24c0.02-0.06,0.04-0.08,0.06-0.08c0.02,0.01,0.05,0.01,0.1,0.01
		c0.22,0.04,0.53,0.13,0.91,0.27s0.76,0.31,1.13,0.48c0.37,0.18,0.69,0.34,0.95,0.5c0.27,0.16,0.4,0.27,0.4,0.32
		c-0.04,0.08-0.13,0.27-0.27,0.58c-0.15,0.3-0.32,0.67-0.51,1.09c-0.19,0.43-0.4,0.89-0.61,1.38s-0.41,0.97-0.6,1.43
		c-0.18,0.46-0.33,0.87-0.45,1.23s-0.18,0.64-0.18,0.81c0,0.05,0.02,0.07,0.07,0.07c0.09,0,0.3-0.13,0.61-0.38
		c0.32-0.25,0.7-0.64,1.16-1.18s0.98-1.23,1.57-2.07s1.19-1.86,1.82-3.05l0.49-1.38c0.04-0.09,0.11-0.14,0.23-0.14
		c0.08,0,0.26,0.08,0.53,0.24c0.27,0.16,0.57,0.34,0.88,0.54c0.31,0.2,0.59,0.41,0.83,0.61c0.25,0.2,0.38,0.35,0.4,0.43
		c0,0.04-0.01,0.1-0.02,0.18c-0.01,0.09-0.03,0.16-0.05,0.22c-0.12,0.32-0.25,0.69-0.4,1.11s-0.31,0.87-0.46,1.33
		c-0.16,0.46-0.31,0.92-0.46,1.39s-0.29,0.9-0.41,1.3s-0.22,0.76-0.3,1.07C43.24,25.39,43.2,25.62,43.2,25.76z"/>
	<path class="st0" d="M57.3,25.83c0.04,0.07,0.09,0.16,0.16,0.27s0.22,0.17,0.46,0.17c0.13,0,0.33-0.08,0.6-0.25
		c0.27-0.17,0.58-0.39,0.93-0.66s0.72-0.56,1.1-0.88c0.39-0.32,0.75-0.64,1.1-0.95s0.67-0.59,0.95-0.84
		c0.28-0.25,0.49-0.43,0.63-0.55c0.11,0.11,0.23,0.24,0.38,0.4c0.15,0.16,0.28,0.32,0.41,0.46c-0.26,0.26-0.58,0.57-0.97,0.95
		c-0.39,0.37-0.82,0.76-1.29,1.16c-0.47,0.4-0.95,0.79-1.45,1.19c-0.5,0.4-0.99,0.75-1.45,1.07c-0.47,0.32-0.9,0.57-1.31,0.76
		c-0.41,0.19-0.75,0.29-1.02,0.29c-0.74,0-1.38-0.11-1.93-0.32c-0.55-0.21-0.88-0.52-0.98-0.93c-0.09-0.33-0.18-0.66-0.27-1
		c-0.09-0.34-0.17-0.68-0.24-1.02l-4.24,3.48c-0.08,0-0.2-0.04-0.35-0.11c-0.15-0.07-0.3-0.15-0.45-0.25
		c-0.15-0.1-0.27-0.19-0.39-0.28c-0.11-0.09-0.17-0.15-0.17-0.18s0.01-0.06,0.02-0.09c0.01-0.02,0.03-0.05,0.05-0.07l5.15-4.32
		c-0.16-0.83-0.3-1.57-0.41-2.22c-0.11-0.65-0.21-1.13-0.29-1.44c-0.08,0.13-0.22,0.33-0.41,0.61c-0.19,0.28-0.42,0.6-0.69,0.95
		c-0.27,0.35-0.57,0.71-0.92,1.09c-0.34,0.38-0.71,0.73-1.09,1.04l-0.84-0.86c0.79-0.81,1.43-1.56,1.92-2.27
		c0.48-0.71,0.87-1.32,1.16-1.84c0.29-0.52,0.5-0.93,0.63-1.23c0.13-0.3,0.25-0.45,0.36-0.45c0.23,0,0.52,0.02,0.85,0.07
		c0.33,0.05,0.67,0.11,1.02,0.19c0.34,0.08,0.67,0.18,0.97,0.29c0.3,0.11,0.54,0.24,0.72,0.38c0.04,0.12,0.1,0.43,0.19,0.94
		c0.09,0.51,0.2,1.11,0.33,1.79l4.06-3.41c0.13-0.09,0.23-0.14,0.32-0.14c0.07,0,0.18,0.04,0.32,0.12c0.15,0.08,0.29,0.18,0.44,0.29
		c0.15,0.11,0.27,0.22,0.39,0.32c0.11,0.1,0.16,0.17,0.15,0.2c0,0.02-0.02,0.06-0.07,0.11c-0.04,0.04-0.2,0.18-0.49,0.43
		s-0.68,0.58-1.16,0.98s-1.04,0.86-1.66,1.38s-1.27,1.06-1.95,1.62c0.08,0.43,0.16,0.85,0.24,1.26c0.08,0.41,0.15,0.77,0.21,1.09
		c0.06,0.32,0.12,0.59,0.18,0.81C57.22,25.65,57.26,25.78,57.3,25.83z"/>
</g>
</svg>
